<svg xmlns="http://www.w3.org/2000/svg" xmlns:xlink="http://www.w3.org/1999/xlink" viewBox="0 0 95.481 94.34155641734363" height="94.34155641734363" width="95.481" data-background-color="#ea3c12" preserveAspectRatio="xMidYMid meet" id="tight-bounds"><g><svg viewBox="0 0 95.481 94.34155641734363" height="94.34155641734363" width="95.481"><g><svg viewBox="0 0 95.481 94.34155641734363" height="94.34155641734363" width="95.481"><g id="textblocktransform"><svg viewBox="0 0 95.481 94.34155641734363" height="94.34155641734363" width="95.481" id="textblock"><g><svg viewBox="0 0 95.481 94.34155641734363" height="94.34155641734363" width="95.481"><g><svg viewBox="0 0 95.481 94.34155641734363" height="94.34155641734363" width="95.481"><g><svg xmlns="http://www.w3.org/2000/svg" xmlns:xlink="http://www.w3.org/1999/xlink" version="1.1" x="0" y="0" viewBox="7.679861068725586 8.78588581085205 80.37327575683594 79.41412353515625" enable-background="new 0 0 100 100" xml:space="preserve" height="94.34155641734363" width="95.481" class="icon-icon-0" data-fill-palette-color="accent" id="icon-0"><g fill="#ffbe79" data-fill-palette-color="accent"><path d="M30.1 27c0.2 0.6 0.8 0.9 1.4 0.9 0.2 0 0.4 0 0.6-0.1 0.8-0.3 1.1-1.2 0.8-2L25.7 9.7c-0.3-0.8-1.2-1.1-2-0.8-0.8 0.3-1.1 1.2-0.8 2L30.1 27z" fill="#ffbe79" data-fill-palette-color="accent"/><path d="M18.5 32.5c0.4 0 0.9-0.2 1.2-0.6 0.5-0.6 0.4-1.6-0.2-2.1l-9.4-7.5C9.5 21.9 8.5 22 8 22.6c-0.5 0.6-0.4 1.6 0.2 2.1l9.4 7.5C17.9 32.4 18.2 32.5 18.5 32.5z" fill="#ffbe79" data-fill-palette-color="accent"/><path d="M66.2 27.6c0.2 0.1 0.4 0.1 0.6 0.1 0.6 0 1.1-0.3 1.4-0.9l5.6-12.2c0.3-0.8 0-1.6-0.7-2-0.8-0.3-1.6 0-2 0.7l-5.6 12.2C65.1 26.3 65.4 27.2 66.2 27.6z" fill="#ffbe79" data-fill-palette-color="accent"/><path d="M87.5 21.2c-0.6-0.5-1.6-0.5-2.1 0.2L77.9 30c-0.5 0.6-0.5 1.6 0.2 2.1 0.3 0.2 0.6 0.4 1 0.4 0.4 0 0.8-0.2 1.1-0.5l7.5-8.7C88.2 22.7 88.2 21.7 87.5 21.2z" fill="#ffbe79" data-fill-palette-color="accent"/><path d="M48.9 25.8C49 25.8 49 25.8 48.9 25.8c0.9 0 1.5-0.6 1.5-1.4L50.8 14c0-0.8-0.6-1.5-1.4-1.5-0.8 0-1.5 0.6-1.5 1.4l-0.3 10.3C47.5 25.1 48.1 25.8 48.9 25.8z" fill="#ffbe79" data-fill-palette-color="accent"/><path d="M86.7 60.4c-0.1-0.4-0.3-0.7-0.6-0.9-0.6-1-1.8-2.4-3.8-3.7 0.3-0.4 0.6-0.7 0.7-1.1 0 0 0-0.1 0-0.1 0.1-0.3 2-8.4-3.9-14.4-4.3-4.3-17.4-7.6-30-7.6-6.8 0-16.5 1-24.1 5.6-0.9 0.5-10.3 6.1-8.9 18.1 0.1 0.5 0.2 0.9 0.5 1.3-2.9 2.1-5.8 4.7-5.5 6.7 0.1 0.4 0.4 1.5 1.8 2 0.6 0.2 1.2 0.3 1.9 0.3 1.5 0 2.7-0.5 3.6-0.9 0 0 0 0 0 0 0 0.1 0 0.1 0 0.2 0.1 0.6 0.1 1.3 0.3 2.1-0.1 0.1-0.1 0.3-0.2 0.4-1.3 0.6-2.9 1.7-3 3.3 0 0.1 0 0.3-0.1 0.4-0.9 6.3 1.2 10.5 6.3 12.3 4.7 1.7 13.1 3.8 25.1 3.8 6 0 12.9-0.5 20.7-1.9 15.2-2.7 16.4-5.4 15.9-13.1 0-0.5-0.1-1-0.1-1.6 0-1-0.5-1.8-1.2-2.3-0.5-0.4-1.1-0.6-1.7-0.7 1.1-0.1 2.3-0.3 3.4-0.6 0.5-0.1 0.9-0.5 1.1-1l1.8-5.5c0.1-0.3 0.1-0.6 0-1C86.8 60.5 86.7 60.4 86.7 60.4zM22.8 81.6c-4.7-1.7-4.9-5.5-4.4-9 0-0.2 0.1-0.4 0.1-0.5 0-0.1 0.2-0.2 0.3-0.4 0.4 0.3 1.4 0.7 2.7 1.2 0.2 0.1 0.4 0.1 0.6 0.2 3.1 1 7.9 2.2 13.8 3 0.9 1.4 2 2.5 3.4 2.5 0.5 0 0.9-0.1 1.4-0.3 0.7-0.3 1.2-0.9 1.5-1.5 10.9 0.8 24.2-0.1 37.2-5.4 0.5 0.1 0.8 0.2 0.9 0.3 0 0.6 0.1 1.1 0.1 1.6 0.4 5.9 0.5 7.5-13.4 10C44.3 87.4 29.6 84 22.8 81.6zM26.6 40.7c7-4.3 16.1-5.2 22.5-5.2 12.7 0 24.6 3.5 27.9 6.7 4.5 4.5 3.3 10.7 3.2 11.4-0.1 0.2-0.3 0.4-0.6 0.6-0.4 0.3-1.1 0.6-1.9 0.9-0.6 0.2-1.3 0.5-2.1 0.7-1.2 0.3-2.5 0.7-4 1-0.8 0.2-1.7 0.3-2.6 0.5-0.6 0.1-1.2 0.2-1.8 0.3-0.8 0.1-1.6 0.2-2.4 0.4-0.7 0.1-1.4 0.2-2.2 0.3-0.7 0.1-1.3 0.2-2 0.2-0.7 0.1-1.4 0.2-2.2 0.2-1 0.1-1.9 0.2-3 0.3-4.3 0.3-9 0.5-13.9 0.5 0 0 0 0 0 0-10 0-15.8-0.9-19-1.8-0.9-0.3-1.7-0.6-2.2-0.8-0.8-0.4-1.2-0.8-1.2-1.1 0 0 0 0 0 0C17.9 45.4 26.1 40.9 26.6 40.7 26.5 40.7 26.6 40.7 26.6 40.7zM33.8 69.2c-0.5 0-0.8 0-0.8 0l-1.5-0.8c1.1-0.7 1.8-1 2.1-1.2 0 0.1 0 0.3 0 0.5C33.7 68 33.7 68.6 33.8 69.2zM69.9 68c-0.5 0.7-1 1.1-2 1-1.5-0.2-1.5 0-2.2-0.7-0.4-0.4-1.1-1.1-1.9-1.4 0-0.1 0.1-0.3 0.1-0.4C65.7 67 67.7 67.6 69.9 68zM52.2 69.8c0.1-0.3 0.2-0.6 0.3-0.9 0.1-0.7 1.6-0.8 1.9-0.8 1.4 0 3 0.5 4.1 1.3 0.1 0.1 0.2 0.1 0.3 0.2-0.1 0.1-0.2 0.2-0.3 0.2-0.5 0.4-1 0.7-1.5 1.1-1.5 0.9-3.6 1.5-3.6 1.5s-3 1-4.5-0.5C50.4 71.9 51.6 71.1 52.2 69.8zM80.7 59.7c-2.8 0.2-5.3 0.1-7.4-0.2 1-0.2 1.9-0.5 2.8-0.7 1.3-0.4 2.5-0.8 3.4-1.3 1.2 0.6 2.2 1.3 2.8 2C81.8 59.6 81.3 59.7 80.7 59.7zM19 59.6c1.4 0.8 3.4 1.4 5.9 1.9l-1.8 3c-0.4 0.7-0.2 1.6 0.5 2.1 0.2 0.1 0.5 0.2 0.8 0.2 0.5 0 1-0.3 1.3-0.7l2.4-4c3.4 0.4 7.6 0.6 12.4 0.7l0.4 2.3c0.1 0.7 0.8 1.2 1.5 1.2 0.1 0 0.2 0 0.3 0 0.8-0.2 1.3-0.9 1.2-1.8l-0.3-1.8c3.6-0.1 8-0.2 12.5-0.6 0.8-0.1 1.5-0.1 2.3-0.2 0.4 0 0.7-0.1 1.1-0.1 0.5 0.6 0.9 1.3 1.2 1.9 0.3 0.6 0.4 1.3 0.4 1.8 0 0.2 0 0.4 0 0.6-0.1 0.8-0.5 1.2-0.5 1.2 0 0-0.1 0-0.1-0.1-1.6-1.2-3.8-1.9-5.9-1.9-2.6 0-4.4 1.2-4.8 3.2 0 0.2-0.1 0.6-0.9 0.6-0.8 0-2.2-0.5-3.3-1.6-0.5-0.5-1.1-0.8-1.7-0.8-1.2 0-1.8 0.8-2.2 2-0.1 0.3-0.2 0.6-0.3 1-0.1 0.5-0.2 1-0.3 1.5-0.2 1.5-0.7 4.1-1.5 4.6-0.8-0.3-2.1-3.5-2.5-6.2 0-0.1 0-0.3-0.1-0.4-0.1-0.5-0.1-0.9-0.1-1.4 0-3.2-1.9-3.6-2.7-3.6-1 0-2.5 0.4-6 3.1-0.6 0.4-1.2 0.9-1.9 1.5-0.2 0.2-0.5 0.4-0.7 0.5-1.2 0.9-1.9 1-2.2 1-0.4 0-0.7-0.4-1-1 0 0 0 0 0 0-0.1-0.3-0.2-0.6-0.3-0.9-0.1-0.5-0.2-1-0.3-1.5-0.1-0.5-0.1-0.9-0.1-1.2 0-0.5-0.1-0.9-0.1-1.2-0.2-1.5-1.3-2-2.1-2-0.6 0-1.2 0.2-1.9 0.5-0.9 0.3-1.9 0.8-2.9 0.6C15.1 62.6 17 61 19 59.6zM82.4 65.3c-0.9 0.2-1.8 0.3-2.6 0.4-2.4 0.2-4.8 0.1-7-0.2-3.5-0.5-6.6-1.4-9.1-2.3-0.2-0.6-0.4-1.2-0.8-1.8 1.3-0.2 2.6-0.3 3.9-0.5 2.6 1.1 6.2 2.1 11 2.1 1.7 0 3.6-0.1 5.6-0.4L82.4 65.3z" fill="#ffbe79" data-fill-palette-color="accent"/></g></svg></g></svg></g></svg></g></svg></g></svg></g><g/></svg></g><defs/></svg>